
 #######                         #######                      
 #       ###### ###### #         #       #####  ###### ###### 
 #       #      #      #         #       #    # #      #      
 #####   #####  #####  #         #####   #    # #####  #####  
 #       #      #      #         #       #####  #      #      
 #       #      #      #         #       #   #  #      #      
 #       ###### ###### ######    #       #    # ###### ###### 

Genre:Comedy | Sci-Fi 
Language:English
IMDb:http://www.imdb.com/title/tt1523483/ 
Source:BluRay.x264-SiNNERS


Format : MPEG-4
Format profile : Base Media
Codec ID : isom
File size : 2.35 GiB
Duration : 1h 26mn
Overall bit rate : 3 890 Kbps


Video
Format profile : High@L4.1
Format settings, CABAC : Yes
Format settings, ReFrames : 3 frames
Codec ID : avc1
Codec ID/Info : Advanced Video Coding
Duration : 1h 26mn
Bit rate mode : Variable
Bit rate : 3 407 Kbps
Maximum bit rate : 37.4 Mbps
Width : 1 280 pixels
Height : 528 pixels
Display aspect ratio : 2.40:1
Frame rate mode : Constant
Frame rate : 23.976 fps
Color space : YUV
Chroma subsampling : 4:2:0
Bit depth : 8 bits
Scan type : Progressive
Bits/(Pixel*Frame) : 0.210
Stream size : 2.08 GiB (89%)
Writing library : x264 

Audio
ID : 2
Format : AAC
Format/Info : Advanced Audio Codec
Format version : Version 4
Format profile : LC
Format settings, SBR : No
Codec ID : 40
Duration : 1h 26mn
Bit rate mode : Variable
Bit rate : 443 Kbps
Maximum bit rate : 589 Kbps
Channel(s) : 6 channels
Channel positions : Front: L C R, Side: L R, LFE
Sampling rate : 48.0 KHz
Stream size : 274 MiB (11%)


Plot:
A sci-fi story centered on the sexual awakening of a group of college students


Greets:

INK,CRYS,IMAGINE,LKRG,FXG,3Li,FLAWL3SS,TA,iLLUSiON,ViSiON,LU,TheFalcon007,MYSTiC,PrisM,Noir,WBZ,LAP,Rx,Kingdom,SAFCuk009+Fabreezy,HDLiTE,TWiZTED,ExtraTorrentRG.ELEKTRI4KA,MAGNAT,CM8
And to all the other p2p grps past and present






================================== 
http://thepiratebay.org/user/hiest
==================================






Screen Shots:
 
http://www.postimg.com/30000/29322.jpg
 
http://www.postimg.com/30000/29323.jpg
 
http://www.postimg.com/30000/29324.jpg
 
http://www.postimg.com/30000/29325.jpg
 
http://www.postimg.com/30000/29326.jpg
 
http://www.postimg.com/30000/29327.jpg
 
http://www.postimg.com/30000/29328.jpg

 #######                         #######                      
 #       ###### ###### #         #       #####  ###### ###### 
 #       #      #      #         #       #    # #      #      
 #####   #####  #####  #         #####   #    # #####  #####  
 #       #      #      #         #       #####  #      #      
 #       #      #      #         #       #   #  #      #      
 #       ###### ###### ######    #       #    # ###### ###### 
